# xmcd CD database file generated by Grip 2.94
# 
# Track frame offsets:
#       187
#       17062
#       35995
#       52965
#       69067
#       81885
#       97050
#       109730
#       120200
#       131635
#       145710
#       160317
# 
# Disc length: 2401 seconds
# 
# Revision: 3
# Processed by: cddbd v1.4b41PL1 Copyright (c) Steve Scherf et al.
# Submitted via: Grip 2.94
# 
DISCID=9a095f0c
DTITLE=Doug Legacy with the Zydeco Party Band - King Cake Party
DYEAR=1900
DGENRE=
TTITLE0=King Cake
TTITLE1=Zydeco Shoes
TTITLE2=Cakewalk Into Town
TTITLE3=Crime Don't Pay
TTITLE4=Evil
TTITLE5=He Hates His Threads
TTITLE6=Sweet Cajun Baby
TTITLE7=Closin' Time
TTITLE8=Cakewalk
TTITLE9=Smokey Places
TTITLE10=No Self Control
TTITLE11=Ya Ya
EXTD=
EXTT0=
EXTT1=
EXTT2=
EXTT3=
EXTT4=
EXTT5=
EXTT6=
EXTT7=
EXTT8=
EXTT9=
EXTT10=
EXTT11=
PLAYORDER=
